<region> region_label=01_rr1 seq_position=1 key=49 sample=alt_p_01.$EXT volume=-7.5 tune=-16
<region> region_label=02_rr1 seq_position=1 key=50 sample=alt_p_02.$EXT volume=-4 tune=-5
<region> region_label=03_rr1 seq_position=1 key=51 sample=alt_p_03.$EXT volume=-1 tune=3
<region> region_label=04_rr1 seq_position=1 key=52 sample=alt_p_04.$EXT volume=-0.5 tune=7
<region> region_label=05_rr1 seq_position=1 key=53 sample=alt_p_05.$EXT tune=11
<region> region_label=06_rr1 seq_position=1 key=54 sample=alt_p_06.$EXT volume=-1 tune=11
<region> region_label=07_rr1 seq_position=1 key=55 sample=alt_p_07.$EXT tune=3
<region> region_label=08_rr1 seq_position=1 key=56 sample=alt_p_08.$EXT tune=6
<region> region_label=09_rr1 seq_position=1 key=57 sample=alt_p_09.$EXT tune=3
<region> region_label=10_rr1 seq_position=1 key=58 sample=alt_p_10.$EXT tune=2
<region> region_label=11_rr1 seq_position=1 key=59 sample=alt_p_11.$EXT tune=2
<region> region_label=12_rr1 seq_position=1 key=60 sample=alt_p_12.$EXT tune=-2
<region> region_label=13_rr1 seq_position=1 key=61 sample=alt_p_13.$EXT volume=2 tune=2
<region> region_label=14_rr1 seq_position=1 key=62 sample=alt_p_14.$EXT volume=1 tune=6
<region> region_label=15_rr1 seq_position=1 key=63 sample=alt_p_15.$EXT volume=3 tune=3
<region> region_label=16_rr1 seq_position=1 key=64 sample=alt_p_16.$EXT volume=1.5 tune=11
<region> region_label=17_rr1 seq_position=1 key=65 sample=alt_p_17.$EXT volume=-1.5 tune=-17
<region> region_label=18_rr1 seq_position=1 key=66 sample=alt_p_18.$EXT volume=1 tune=-7
<region> region_label=19_rr1 seq_position=1 key=67 sample=alt_p_19.$EXT tune=-11
<region> region_label=20_rr1 seq_position=1 key=68 sample=alt_p_20.$EXT volume=-1 tune=-8
<region> region_label=21_rr1 seq_position=1 key=69 sample=alt_p_21.$EXT volume=-1 tune=-3
<region> region_label=22_rr1 seq_position=1 key=70 sample=alt_p_22.$EXT
<region> region_label=23_rr1 seq_position=1 key=71 sample=alt_p_23.$EXT tune=-4
<region> region_label=24_rr1 seq_position=1 key=72 sample=alt_p_24.$EXT volume=-1 tune=-10
<region> region_label=25_rr1 seq_position=1 key=73 sample=alt_p_25.$EXT tune=-14
<region> region_label=26_rr1 seq_position=1 key=74 sample=alt_p_26.$EXT tune=-12
<region> region_label=27_rr1 seq_position=1 key=75 sample=alt_p_27.$EXT tune=-16
<region> region_label=28_rr1 seq_position=1 key=76 sample=alt_p_28.$EXT tune=-25
<region> region_label=29_rr1 seq_position=1 key=77 sample=alt_p_29.$EXT tune=-24
<region> region_label=30_rr1 seq_position=1 key=78 sample=alt_p_30.$EXT volume=-1 tune=-22
<region> region_label=31_rr1 seq_position=1 key=79 sample=alt_p_31.$EXT tune=-27
<region> region_label=32_rr1 seq_position=1 key=80 sample=alt_p_32.$EXT volume=-0.5 tune=-22
<region> region_label=33_rr1 seq_position=1 key=81 sample=alt_p_33.$EXT volume=-1 tune=-20